<svg width="97" height="38" viewBox="0 0 97 38" fill="none" xmlns="http://www.w3.org/2000/svg">
<path fill-rule="evenodd" clip-rule="evenodd" d="M93.1865 21.41L89.8491 14.6891L87.5483 13.6517L87.1875 11.0356L83.895 8.2391L81.8203 9.81774H77.4902C77.4902 9.81774 78.0312 6.75066 74.3779 3.81873L75.355 2.40561H54.6289C52.8496 0.90483 50.5513 0 48.042 0C45.5322 0 43.2339 0.90483 41.4546 2.40561H20.6733L21.6504 3.81873C17.9971 6.75066 18.5381 9.81774 18.5381 9.81774H14.208L12.1333 8.2391L8.84082 11.0356L8.47998 13.6517L6.1792 14.6891L2.8418 21.41L0 22.312L2.43555 23.3045L5.32227 30.9628L8.84082 32.3706L9.69727 34.3553L13.396 36.9714L15.5615 34.8063H44.853L47.9795 37.8515V37.9186L48.0142 37.8851L48.0483 37.9186V37.8515L51.1753 34.8063H80.4673L82.6323 36.9714L86.3306 34.3553L87.1875 32.3706L90.706 30.9628L93.5928 23.3045L96.0283 22.312L93.1865 21.41ZM85.5557 14.0577L85.5513 14.0217L85.3022 11.6657L83.6001 10.3659L81.4336 11.7024L76.1465 11.6958L75.0693 11.2261L75.0898 11.159C75.1035 11.1128 76.4229 6.53105 71.8428 4.14062H24.0244C19.4443 6.53105 20.7642 11.1128 20.7778 11.159L20.7983 11.2261L19.6895 11.7024H14.4341L14.415 11.6907L12.2671 10.3659L10.5649 11.6657L10.3115 14.0577L10.2817 14.0783L7.85108 15.7617L4.49805 22.4681L6.5044 29.6574L10.2158 31.0072L10.8945 33.1273L12.7422 34.3265L14.5088 32.5599H45.1484L47.9336 35.345L50.7188 32.5599H81.3589L83.1255 34.3265L84.9732 33.1273L85.6514 31.0072L89.3628 29.6574L91.3692 22.4681L88.0161 15.7617L85.5557 14.0577ZM45.105 8.05382C45.5513 8.31017 45.8999 8.67763 46.1524 9.15645C46.4038 9.63561 46.5303 10.1933 46.5303 10.8291C46.5303 11.4652 46.4038 12.0245 46.1524 12.5081C45.8999 12.991 45.5513 13.3626 45.105 13.623C44.6592 13.8829 44.1509 14.013 43.5811 14.013C43.0112 14.013 42.5034 13.8829 42.0571 13.623C41.6113 13.3626 41.2622 12.991 41.0107 12.5081C40.7588 12.0245 40.6328 11.4652 40.6328 10.8291C40.6328 10.1933 40.7588 9.63561 41.0107 9.15645C41.2622 8.67763 41.6113 8.31017 42.0571 8.05382C42.5034 7.79811 43.0112 7.66992 43.5811 7.66992C44.1509 7.66992 44.6592 7.79811 45.105 8.05382ZM53.543 8.07124C53.8071 8.32349 53.9395 8.67224 53.9395 9.11818C53.9395 9.5641 53.8052 9.91952 53.5371 10.1838C53.2686 10.4481 52.8696 10.58 52.3413 10.58H50.7803V7.69336H52.3413C52.8784 7.69336 53.2788 7.81962 53.543 8.07124ZM56.4028 20.8242H57.853C58.2818 20.8242 58.6035 20.9293 58.8174 21.1391C59.0322 21.349 59.1392 21.636 59.1392 22.0009C59.1392 22.3839 59.0322 22.6804 58.8174 22.8903C58.6035 23.1001 58.2817 23.2048 57.853 23.2048H56.4028V20.8242ZM27.644 24.983H30.0107L28.8208 21.4668L27.644 24.983ZM37.0571 20.8242H38.5073C38.936 20.8242 39.2578 20.9293 39.4722 21.1391C39.6865 21.349 39.7939 21.636 39.7939 22.0009C39.7939 22.3839 39.6865 22.6804 39.4722 22.8903C39.2578 23.1001 38.936 23.2048 38.5073 23.2048H37.0571V20.8242ZM65.9932 24.983H68.3601L67.1699 21.4668L65.9932 24.983ZM68.6318 10.8775C68.6318 11.8684 68.3633 12.6365 67.8267 13.1819C67.2896 13.7268 66.5176 13.9993 65.5098 13.9993H64.1099V7.69336H65.5098C66.5176 7.69336 67.2895 7.97407 67.8267 8.53584C68.3633 9.09761 68.6318 9.87806 68.6318 10.8775ZM42.9922 10.7402C42.8865 10.7402 42.7988 10.7776 42.7288 10.8529C42.6589 10.9282 42.624 11.0377 42.624 11.1817C42.624 11.3235 42.6582 11.4327 42.7271 11.509C42.7959 11.5853 42.8823 11.6232 42.9861 11.6232C43.0896 11.6232 43.1785 11.5853 43.2512 11.509C43.3242 11.4327 43.3611 11.3235 43.3611 11.1817C43.3611 11.04 43.3257 10.9308 43.2544 10.8545C43.1834 10.7782 43.0962 10.7402 42.9922 10.7402ZM43.791 11.6627C43.709 11.8013 43.5981 11.908 43.457 11.9821C43.3164 12.0561 43.1592 12.0931 42.9854 12.0931C42.8115 12.0931 42.6558 12.0561 42.5166 11.9821C42.3779 11.908 42.269 11.802 42.1895 11.6643C42.1099 11.5266 42.0703 11.3655 42.0703 11.1813C42.0703 10.9991 42.1104 10.8386 42.1909 10.7C42.2715 10.5613 42.3818 10.4547 42.5215 10.3806C42.6611 10.3066 42.8184 10.2695 42.9917 10.2695C43.1655 10.2695 43.3223 10.3066 43.4619 10.3806C43.6021 10.4547 43.7119 10.5613 43.7925 10.7C43.8726 10.8386 43.9131 10.9991 43.9131 11.1813C43.9131 11.3636 43.8726 11.5241 43.791 11.6627ZM44.7998 10.7456H45.0918L45.0918 10.2943H44.7998V10.2785C44.7998 10.1851 44.8208 10.1205 44.8628 10.0844C44.9053 10.0487 44.9785 10.0338 45.0825 10.0401V9.57933C45.0635 9.57744 45.0337 9.57617 44.9936 9.57617C44.752 9.57617 44.5689 9.63281 44.4439 9.74612C44.3189 9.85943 44.2564 10.0253 44.2564 10.2433V10.2943H44.0596V10.7456H44.2564V12.0672H44.7998V10.7456ZM65.5098 6.54297H62.6978V15.1536H65.5098C66.4272 15.1536 67.2305 14.9824 67.9199 14.6393C68.6099 14.2969 69.1421 13.8032 69.5181 13.1588C69.894 12.5148 70.0815 11.7549 70.0815 10.8795C70.0815 10.0041 69.894 9.23785 69.5181 8.58114C69.1421 7.92443 68.6099 7.4209 67.9199 7.0696C67.2305 6.71861 66.4272 6.54297 65.5098 6.54297ZM57.1973 6.54297H58.6099V14.0136H61.521V15.1536H57.1973V6.54297ZM41.3701 6.9953C40.6968 7.3713 40.1646 7.8935 39.772 8.56287C39.3799 9.2316 39.1836 9.98737 39.1836 10.8299C39.1836 11.6723 39.3799 12.4303 39.772 13.1032C40.1645 13.7763 40.6968 14.3011 41.3701 14.6767C42.0435 15.0527 42.7803 15.2404 43.582 15.2404C44.3911 15.2404 45.1323 15.0527 45.8057 14.6767C46.4785 14.3011 47.0093 13.7763 47.3975 13.1032C47.7856 12.4303 47.98 11.6723 47.98 10.8299C47.98 9.98737 47.7856 9.2316 47.3975 8.56287C47.0093 7.89349 46.4785 7.37129 45.8057 6.9953C45.1323 6.61963 44.3911 6.43164 43.582 6.43164C42.7803 6.43164 42.0435 6.61963 41.3701 6.9953ZM20.9541 28.4872H18.1216L16.5898 22.166L15.002 28.4872H12.1704L9.73486 18.8828H12.2388L13.6206 25.874L15.3306 18.8828H17.9028L19.5449 25.874L20.9404 18.8828H23.4575L20.9541 28.4872ZM30.6128 26.7906L31.187 28.4872H33.6641L30.189 18.8828H27.48L24.0049 28.4872H26.4541L27.0283 26.7906H30.6128ZM32.5308 8.63684L30.6104 15.1536L29.0244 15.166L26.5835 6.54297H28.083L29.8667 13.5554L31.7998 6.54297H33.3857L35.1821 13.5183L36.978 6.54297H38.4902L35.938 15.1536H34.3394L32.5308 8.63684ZM37.6182 24.8616L39.6152 28.4872L42.2559 28.4872L40.0396 24.6837C40.7422 24.4739 41.2725 24.1181 41.6338 23.6165C41.9937 23.1149 42.1738 22.5449 42.1738 21.9062C42.1738 21.3407 42.0415 20.8276 41.7769 20.3671C41.5127 19.9066 41.1138 19.544 40.5796 19.2794C40.0464 19.0148 39.4009 18.8828 38.644 18.8828H34.7173V28.4872H37.0566V24.8616H37.6182ZM46.2915 25.6823C46.7383 26.1843 47.3228 26.435 48.043 26.435C48.4897 26.435 48.8892 26.3302 49.2402 26.1204C49.5913 25.9108 49.8628 25.6051 50.0542 25.2035H52.6265C52.3525 26.2435 51.8101 27.0622 50.998 27.6594C50.186 28.257 49.2104 28.5557 48.0703 28.5557C47.1401 28.5557 46.3076 28.3484 45.5737 27.9332C44.8394 27.5183 44.2666 26.9413 43.8564 26.2023C43.4463 25.4636 43.2407 24.6202 43.2407 23.6714C43.2407 22.7229 43.4463 21.8769 43.8564 21.1335C44.2666 20.39 44.8394 19.8109 45.5737 19.396C46.3076 18.981 47.1401 18.7734 48.0703 18.7734C49.2105 18.7734 50.186 19.0744 50.998 19.6764C51.8101 20.2783 52.3525 21.0993 52.6265 22.1389H50.0542C49.8628 21.7376 49.5913 21.4322 49.2402 21.2221C48.8892 21.0126 48.4897 20.9078 48.043 20.9078C47.3228 20.9078 46.7383 21.1585 46.2915 21.6601C45.8447 22.1617 45.6211 22.8321 45.6211 23.6714C45.6211 24.5107 45.8447 25.181 46.2915 25.6823ZM50.7798 11.7093H51.8579L53.8403 15.1536H55.5249L53.394 11.5855C54.0713 11.4203 54.5732 11.1086 54.8994 10.65C55.2256 10.1917 55.3887 9.68189 55.3887 9.12012C55.3887 8.64094 55.2749 8.20737 55.0483 7.81935C54.8208 7.43103 54.478 7.1215 54.0195 6.88983C53.561 6.6588 53.0015 6.54297 52.3408 6.54297H49.3672V15.1536H50.7798V11.7093ZM58.9609 28.4872L56.9634 24.8616H56.4023V28.4872H54.063V18.8828H57.9897C58.7466 18.8828 59.3921 19.0148 59.9258 19.2794C60.4595 19.544 60.8579 19.9066 61.1226 20.3671C61.3872 20.8276 61.5195 21.3407 61.5195 21.9062C61.5195 22.5449 61.3394 23.1149 60.979 23.6165C60.6182 24.1181 60.0874 24.4739 59.3853 24.6837L61.6016 28.4872L58.9609 28.4872ZM68.9624 26.7906L69.5366 28.4872H72.0127L68.5381 18.8828H65.8291L62.354 28.4872H64.8032L65.3774 26.7906H68.9624ZM79.3193 20.7571H75.4063V22.7819H78.3345V24.6014H75.4063V28.4872H73.0669V18.8828H79.3193L79.3193 20.7571ZM84.9146 20.7571H87.4595V18.8828H80.0303V20.7571H82.5757V28.4872H84.9146V20.7571ZM89.4941 29.7763L91.5298 22.4791L91.5386 22.45L88.1489 15.6708L85.7056 13.9669L85.4526 11.5793L83.6104 10.1719L81.3882 11.5423H76.1948L75.2598 11.1347C75.4092 10.5435 76.3071 6.27721 71.8994 3.98934L71.8818 3.98047H24.0049L23.9688 3.98934C19.561 6.27721 20.4595 10.5435 20.6084 11.1347L19.6733 11.5423H14.4795L12.2583 10.1719L10.415 11.5793L10.1621 13.9669L7.74463 15.6411L4.34326 22.4224L4.32959 22.45L6.36328 29.7374L6.37402 29.7763L10.0889 31.1274L10.7612 33.2273L12.7632 34.5268L14.5742 32.7162H45.083L47.9341 35.5668L50.7847 32.7162H81.2934L83.105 34.5268L85.083 33.2425L85.1069 33.2273L85.7788 31.1274L89.4941 29.7763Z" fill="#39E29D"/>
</svg>
